# xmcd CD database file
# Copyright (C) 1993-1996 Ti Kan
#
# Track frame offsets:
#	183
#	13225
#	26273
#	36563
#	56375
#	72565
#	92445
#	111025
#	124155
#	136955
#	153045
#	165703
#	176878
#	190440
#	203518
#	215923
#	229680
#	240773
#	251685
#	267685
#	282725
#	295105
#	310318
#
# Disc length: 4283 seconds
#
# Revision: 2
# Processed by: cddbd v1.4PL0 Copyright (c) Steve Scherf et al.
# Submitted via: Gronk 1.4
#
DISCID=5710b917
DTITLE=Jimmy Reed - Vee-Jay Years - Disc 5/6
DYEAR=1900
DGENRE=blues
TTITLE0=I'll Change My Style
TTITLE1=Let's Get Together
TTITLE2=In The Morning
TTITLE3=You Can't Hide
TTITLE4=Back Home At Noon
TTITLE5=Lookin' For You Baby
TTITLE6=Kansas City Baby
TTITLE7=Oh John
TTITLE8=Shame, Shame, Shame
TTITLE9=Cold And Lonesome
TTITLE10=There'll be A Day
TTITLE11=Ain't No Big Deal
TTITLE12=Mary, Mary
TTITLE13=Upside The Wall
TTITLE14=Baby's So Sweet
TTITLE15=I'm Gonna Help You
TTITLE16=Up Tight
TTITLE17=Mixed Up
TTITLE18=I'm Trying To Please You
TTITLE19=Five Long Years
TTITLE20=See See Rider
TTITLE21=Outskirts Of Town
TTITLE22=Trouble In Mind
EXTD=
EXTT0=
EXTT1=
EXTT2=
EXTT3=
EXTT4=
EXTT5=
EXTT6=
EXTT7=
EXTT8=
EXTT9=
EXTT10=
EXTT11=
EXTT12=
EXTT13=
EXTT14=
EXTT15=
EXTT16=
EXTT17=
EXTT18=
EXTT19=
EXTT20=
EXTT21=
EXTT22=
PLAYORDER=
